<svg xmlns="http://www.w3.org/2000/svg" viewBox="0 0 1024 1024" width="1024" height="1024"><g id="plant"><g id="stem"><path id="stem-shape" d="M518.0,882.3 L518.4,872.2 L518.4,861.7 L518.0,850.9 L517.4,839.8 L516.5,828.5 L515.5,817.0 L514.4,805.4 L513.3,793.6 L512.2,781.8 L511.3,770.0 L510.5,758.1 L509.9,746.4 L509.7,734.7 L509.9,723.1 L510.4,711.7 L511.5,700.4 L511.1,701.7 L510.2,702.7 L509.0,703.4 L507.6,703.5 L506.3,703.1 L505.3,702.2 L504.6,701.0 L504.5,699.6 L503.1,711.0 L502.2,722.7 L501.8,734.6 L501.7,746.5 L501.9,758.5 L502.3,770.5 L503.0,782.5 L503.7,794.4 L504.5,806.2 L505.3,817.8 L506.0,829.2 L506.5,840.4 L506.9,851.2 L506.9,861.7 L506.7,871.9 L506.0,881.7 L518.0,882.3 Z" fill="#5E8F45" stroke="#2F4A2C" stroke-width="2.4" stroke-linejoin="round"/><g id="cotyledon-left"><path id="cotyledon-left-blade" d="M508.0,700.0 C502.3,704.9 488.0,716.1 469.2,709.3 C446.2,700.9 434.3,686.1 438.5,674.7 C442.6,663.3 461.3,659.6 484.2,667.9 C503.0,674.8 506.8,692.5 508.0,700.0 Z" fill="#86B060" stroke="#2F4A2C" stroke-width="2.4" stroke-linejoin="round"/></g><g id="cotyledon-right"><path id="cotyledon-right-blade" d="M508.0,700.0 C508.6,692.8 511.0,675.7 528.2,668.0 C549.3,658.6 567.3,661.0 571.9,671.5 C576.6,682.1 566.4,697.0 545.3,706.4 C528.1,714.1 513.8,704.3 508.0,700.0 Z" fill="#86B060" stroke="#2F4A2C" stroke-width="2.4" stroke-linejoin="round"/><path id="hull-hull" d="M589.9,661.0 C593.5,667.2 589.2,676.4 580.4,681.5 C569.5,687.8 553.1,685.6 550.0,684.0 C550.2,680.6 556.5,665.3 567.4,659.0 C576.2,653.9 586.3,654.8 589.9,661.0 Z" fill="#443B35"/><path id="hull-stripes" d="M586.8,669.5 C579.2,674.8 568.9,679.5 555.6,683.5 C568.2,678.3 578.6,673.6 586.8,669.5 Z M583.9,664.5 C575.9,669.1 566.1,674.8 554.4,681.5 C565.2,673.3 575.1,667.6 583.9,664.5 Z M581.0,659.5 C572.6,663.3 563.3,670.0 553.2,679.4 C562.6,668.8 571.9,662.1 581.0,659.5 Z" fill="#D9D1C1"/><path id="hull-shine" d="M576.6,673.6 a3.2,2.1 0 1,0 6.4,0 a3.2,2.1 0 1,0 -6.4,0" fill="#6B6058"/><path id="hull-outline" d="M589.9,661.0 C593.5,667.2 589.2,676.4 580.4,681.5 C569.5,687.8 553.1,685.6 550.0,684.0 C550.2,680.6 556.5,665.3 567.4,659.0 C576.2,653.9 586.3,654.8 589.9,661.0 Z" fill="none" stroke="#4A3322" stroke-width="2.6" stroke-linejoin="round"/></g></g></g><g id="base"><path id="base-mound" d="M477.0,900.0 C482.6,881.1 496.6,875.9 512.0,879.0 C529.5,874.8 542.8,883.2 547.0,900.0 C523.7,903.3 500.3,903.3 477.0,900.0 Z" fill="#7A5537" stroke="#4A3322" stroke-width="2.6" stroke-linejoin="round"/><path id="base-clumps" d="M494.2,892.6 a2.5,1.8 0 1,0 4.9,0 a2.5,1.8 0 1,0 -4.9,0 M522.6,890.5 a2.0,1.5 0 1,0 3.9,0 a2.0,1.5 0 1,0 -3.9,0 M511.9,896.2 a1.5,1.2 0 1,0 3.1,0 a1.5,1.2 0 1,0 -3.1,0" fill="#5E3F28"/></g></svg>